<?xml version="1.0" encoding="utf-8"?>
<!-- Generator: Adobe Illustrator 26.0.3, SVG Export Plug-In . SVG Version: 6.00 Build 0)  -->
<svg version="1.1" id="Capa_1" xmlns="http://www.w3.org/2000/svg" xmlns:xlink="http://www.w3.org/1999/xlink" x="0px" y="0px"
	 viewBox="0 0 130.6 156.2" style="enable-background:new 0 0 130.6 156.2;" xml:space="preserve">
<style type="text/css">
	.st0{fill:#2A7A79;}
	.st1{fill:#3CAEAA;}
	.st2{fill:#B6DEDE;}
</style>
<circle class="st0" cx="98.4" cy="60.5" r="32.1"/>
<path class="st1" d="M85.5,14.8c9.6,14.9,5.4,34.7-9.5,44.4c-5.2,3.4-11.2,5.1-17.4,5.1h-6.3c10,14.6,30,18.3,44.6,8.3
	c14.6-10,18.3-30,8.3-44.6C100.5,21.2,93.5,16.5,85.5,14.8z"/>
<path class="st2" d="M59.2,64.2C76.9,63.9,91,49.3,90.7,31.5C90.4,14.2,76.5,0.3,59.2,0h-19v64.2H59.2z"/>
<path class="st2" d="M78.7,78.2L20,77.8v64h19.5V92.6h71.2V46.1C110.8,63.8,96.4,78.2,78.7,78.2z"/>
<path class="st0" d="M58.6,64.3H0v63.5h19.9l0.2-0.1V77.9l58.6,0.4c4.1,0,8.2-0.8,12-2.3V32.2C90.7,49.9,76.3,64.3,58.6,64.3
	C58.6,64.3,58.6,64.3,58.6,64.3z"/>
<path class="st1" d="M110.8,90.2L110.8,90.2c-3.9,1.6-8.1,2.5-12.4,2.5H39.6v63.5h39.5c2.8,0,6.2,0,6.2,0l2-0.1
	c22.8-2.2,40.9-20.2,43.3-43V60.5C130.5,73.5,122.7,85.2,110.8,90.2z"/>
</svg>
